<svg id="Layer_1" data-name="Layer 1" xmlns="http://www.w3.org/2000/svg" viewBox="0 0 180 180">
  <path d="m65.15,162.96c-8.01,0-15.29-1.6-21.85-4.81-6.55-3.2-11.72-7.79-15.51-13.76-3.79-5.97-5.68-12.89-5.68-20.75,0-8.44,2.22-16.06,6.66-22.83,4.44-6.77,10.49-11.98,18.13-15.62,7.65-3.64,16.2-5.31,25.67-5.02l1.09,3.28c-9.03,1.75-16.09,5.46-21.19,11.14-5.1,5.68-7.65,12.89-7.65,21.63,0,5.83,1.27,11.03,3.82,15.62,2.55,4.59,6.08,8.23,10.59,10.92,4.51,2.7,9.61,4.04,15.29,4.04,5.97,0,10.99-.76,15.07-2.29,4.08-1.53,7.9-4.08,11.47-7.65,3.57-3.57,7.97-8.92,13.22-16.06l4.15,6.12c-4.95,8.59-9.94,15.48-14.96,20.64-5.02,5.17-10.63,9.03-16.82,11.58-6.19,2.55-13.36,3.82-21.52,3.82Zm1.31-71.43c-5.24-5.68-9.28-10.7-12.12-15.07s-4.77-8.33-5.79-11.91c-1.02-3.57-1.53-7.24-1.53-11.03,0-6.55,1.64-12.34,4.92-17.37,3.28-5.02,8.01-8.96,14.2-11.8,6.19-2.84,13.44-4.26,21.74-4.26,7.57,0,14.71.98,21.41,2.95,6.7,1.97,13.25,5.35,19.66,10.16l-15.07,15.29h-.87c-4.23-6.84-8.67-11.83-13.33-14.96-4.66-3.13-9.54-4.7-14.64-4.7-5.83,0-10.34,1.6-13.54,4.81-3.21,3.21-4.81,7.36-4.81,12.45,0,3.21.44,6.23,1.31,9.07.87,2.84,2.22,5.61,4.04,8.3,1.82,2.7,4.18,5.57,7.1,8.63l79.08,86.94v1.31h-28.84l-62.91-68.81Zm55.49,32.11l-6.55-3.93,21.84-36.04-1.75,15.51-10.27-22.94v-1.09h30.58v1.09l-33.86,47.4Z"/>
  <style>
        path { fill: #E0296A; }
        @media (prefers-color-scheme: dark) {
            path { fill: #fff6e1; }
        }
    </style>
</svg>
